{"title":"Thomas.And.Friends.Milkshake.Muddle[2006]-Bearmeister.avi","uid":3979224,"size":523606016,"categoryP":"video","categoryS":"tv_shows","magnet":"?xt=urn:btih:0ca96bffaa83b3e836dd3dc07852888a57ccb110&amp;dn=Thomas.And.Friends.Milkshake.Muddle%5B2006%5D-Bearmeister.avi&amp;tr=udp%3A%2F%2Ftracker.openbittorrent.com%3A80&amp;tr=udp%3A%2F%2Fopen.demonii.com%3A1337&amp;tr=udp%3A%2F%2Ftracker.coppersurfer.tk%3A6969&amp;tr=udp%3A%2F%2Fexodus.desync.com%3A6969","seeders":0,"leechers":1,"uploader":"bearmeister","files":1,"time":1200449855,"description":"\nAll legitimate Bearmeister torrents located here &lt;a href=&quot;\nhttp://thepiratebay.se/user/bearmeister/&quot; rel=&quot;nofollow&quot; target=&quot;_NEW&quot;&gt;\nhttp://thepiratebay.se/user/bearmeister/&lt;/a&gt;\n\n  Duration: 00:57:31.3, bitrate: 1213 kb/s\n  Stream #0.0: Video: mpeg4, 624x464, 29.97 fps\n  Stream #0.1: Audio: mp3, 24000 Hz, stereo, 61 kb/s\n\nIn this release of Thomas and Friends Milkshake Muddle DVD, get on board for more adventures with Thomas the Tank Engine AND meet the newest engines, Mighty Mac  and Neville! Ride along as they encounter new trucks, an old mine and an ice cream factory and see how they muddle their way through 6 thrilling episodes! Join Mighty Mac, a very unusual engine with two faces, and Neville, an enthusiastic steamie, who is everyone&amp;#039;s friend on The Island of Sodor.","torrent":{"xt":"urn:btih:0ca96bffaa83b3e836dd3dc07852888a57ccb110","amp;dn":"Thomas.And.Friends.Milkshake.Muddle%5B2006%5D-Bearmeister.avi","amp;tr":["udp%3A%2F%2Ftracker.openbittorrent.com%3A80","udp%3A%2F%2Fopen.demonii.com%3A1337","udp%3A%2F%2Ftracker.coppersurfer.tk%3A6969","udp%3A%2F%2Fexodus.desync.com%3A6969"],"infoHash":"0ca96bffaa83b3e836dd3dc07852888a57ccb110","infoHashBuffer":{"type":"Buffer","data":[12,169,107,255,170,131,179,232,54,221,61,192,120,82,136,138,87,204,177,16]},"announce":[],"urlList":[]}}